<svg xmlns="http://www.w3.org/2000/svg" width="255" height="64" viewBox="0 0 255 63.7"><style>.a{fill:#AF8219;}.b{fill:#B4BE46;}</style><path d="M0 43.4h7.7l4.3 13 4.3-13h7.9v1.2h-1.7c-0.4 0-0.7 0.1-0.9 0.2 -0.2 0.2-0.2 0.4-0.2 0.8v14.6c0 0.4 0.1 0.6 0.3 0.8 0.3 0.2 0.6 0.3 1.1 0.3h1.5v1.2h-9.7v-1.2h1.8c0.3 0 0.6-0.1 0.8-0.3 0.2-0.2 0.3-0.5 0.3-0.8V44.6l-6.1 17.9h-1.1l-6.1-18.1v14c0 0.8 0.3 1.5 0.8 2C5.4 60.9 6.1 61.2 7.1 61.3v1.2H0v-1.2c0.9-0.1 1.6-0.4 2.1-0.9 0.5-0.6 0.7-1.3 0.7-2.1V45.9c0-0.5-0.1-0.9-0.3-1 -0.2-0.2-0.5-0.3-1-0.3H0V43.4z" class="a"/><path d="M36.4 42.9l7.2 17.2c0.2 0.5 0.4 0.8 0.7 1 0.2 0.2 0.6 0.3 1 0.3h0.7v1.2h-9v-1.2h0.8c0.7 0 1.1-0.1 1.4-0.2 0.2-0.1 0.4-0.3 0.4-0.6 0-0.2-0.1-0.4-0.2-0.7l-1.5-3.5h-7.2l-0.7 1.6c-0.3 0.7-0.4 1.2-0.4 1.5 0 0.6 0.2 1 0.6 1.4 0.4 0.4 1 0.5 1.7 0.5h0.6v1.2h-7.3v-1.2h0.4c0.5 0 0.9-0.1 1.2-0.4 0.5-0.4 0.9-0.9 1.2-1.6l6.9-16.4H36.4zM34.3 47.7l-3.1 7.3h6.1L34.3 47.7z" class="a"/><path d="M44.5 43.4h16.7l0.4 7.3h-1.2c-0.3-1.6-0.6-2.8-1.1-3.6 -0.4-0.9-0.9-1.5-1.5-1.9 -0.6-0.4-1.2-0.5-1.9-0.5 -0.4 0-0.7 0.1-0.9 0.2 -0.2 0.2-0.3 0.4-0.3 0.7v14.8c0 0.3 0.1 0.5 0.3 0.7 0.2 0.2 0.4 0.3 0.6 0.3h2.2v1.2H47.7v-1.2h2.1c0.3 0 0.6-0.1 0.7-0.3 0.2-0.2 0.3-0.4 0.3-0.7V45.6c0-0.3-0.1-0.6-0.3-0.8 -0.2-0.2-0.5-0.2-0.9-0.2 -2.2 0-3.7 2-4.5 6h-1.1L44.5 43.4z" class="a"/><path d="M77.6 44.8l0.9-1.9h1l0.3 7.7h-1.2c-0.4-2.2-1.1-3.8-2.1-4.9 -1-1.1-2.2-1.6-3.5-1.6 -1.4 0-2.6 0.7-3.6 2.1 -0.9 1.4-1.4 3.6-1.4 6.5 0 3.1 0.5 5.5 1.6 7 0.8 1.2 2.1 1.8 3.7 1.8 1.6 0 3-0.6 4.1-1.8 0.8-0.9 1.4-2.2 1.7-3.9h1.2c-0.3 2.2-1.1 3.9-2.5 5.2s-3.1 1.9-5.1 1.9c-2.6 0-4.8-0.9-6.6-2.8 -1.8-1.8-2.7-4.2-2.7-7.1 0-3.2 1-5.8 3.1-7.7 1.7-1.6 3.8-2.4 6.1-2.4 0.9 0 1.8 0.1 2.6 0.4C75.9 43.6 76.7 44.1 77.6 44.8z" class="a"/><path d="M81.2 43.4h8.9v1.2h-1.3c-0.4 0-0.6 0.1-0.8 0.2 -0.2 0.2-0.3 0.4-0.3 0.7v6.3h7.3V45.8c0-0.5-0.1-0.8-0.3-1 -0.2-0.2-0.5-0.3-1-0.3h-1.1v-1.2h8.9v1.2h-1.2c-0.5 0-0.8 0.1-1 0.3 -0.2 0.2-0.3 0.4-0.3 0.8v14.5c0 0.4 0.1 0.7 0.3 0.9s0.5 0.3 0.8 0.3h1.3v1.2h-8.9v-1.2h1.3c0.4 0 0.6-0.1 0.8-0.2 0.2-0.2 0.2-0.4 0.2-0.8v-6.9h-7.3v6.9c0 0.4 0.1 0.6 0.2 0.8 0.2 0.2 0.4 0.3 0.6 0.3h1.5v1.2h-8.9v-1.2h1.4c0.3 0 0.6-0.1 0.7-0.3 0.2-0.2 0.2-0.4 0.2-0.8V45.8c0-0.4-0.1-0.8-0.3-1 -0.2-0.2-0.5-0.3-1-0.3h-1.1V43.4z" class="a"/><path d="M113.6 42.9l7.2 17.2c0.2 0.5 0.4 0.8 0.7 1 0.2 0.2 0.6 0.3 1 0.3h0.7v1.2h-9v-1.2h0.8c0.7 0 1.1-0.1 1.4-0.2 0.3-0.1 0.4-0.3 0.4-0.6 0-0.2-0.1-0.4-0.2-0.7l-1.5-3.5h-7.2l-0.7 1.6c-0.3 0.7-0.4 1.2-0.4 1.5 0 0.6 0.2 1 0.6 1.4 0.4 0.4 1 0.5 1.7 0.5h0.6v1.2h-7.3v-1.2h0.4c0.5 0 0.9-0.1 1.2-0.4 0.5-0.4 0.9-0.9 1.2-1.6l6.9-16.4H113.6zM111.5 47.7l-3.1 7.3h6.1L111.5 47.7z" class="a"/><path d="M158.6 49.9l0.5-1.1h0.5l0.2 4.6h-0.5c-0.3-1.3-0.8-2.3-1.3-2.9 -0.6-0.8-1.4-1.2-2.3-1.2 -1 0-1.8 0.4-2.4 1.3 -0.6 0.9-0.9 2.3-0.9 4.4 0 1.7 0.3 3 1 4 0.6 0.8 1.4 1.2 2.5 1.2 0.9 0 1.7-0.3 2.3-0.9 0.6-0.6 1-1.5 1.2-2.7h0.6c-0.2 1.4-0.6 2.4-1.4 3.2s-1.8 1.1-2.9 1.1c-1 0-1.8-0.2-2.6-0.7 -0.8-0.5-1.4-1.2-1.9-2.1 -0.5-0.9-0.7-1.9-0.7-3 0-1.1 0.2-2.2 0.7-3.2s1.1-1.8 1.9-2.3c0.8-0.5 1.6-0.8 2.5-0.8 0.5 0 1 0.1 1.4 0.3S158 49.5 158.6 49.9z" class="a"/><path d="M167.8 59.7l0.3 0.4c-0.4 0.4-0.8 0.6-1.3 0.6 -0.4 0-0.6-0.1-0.9-0.3 -0.2-0.2-0.5-0.5-0.6-1 -0.5 0.5-0.9 0.9-1.3 1 -0.4 0.2-0.8 0.3-1.3 0.3 -0.7 0-1.3-0.2-1.7-0.5s-0.6-0.7-0.6-1.2c0-0.8 0.4-1.4 1.3-1.9 0.9-0.5 2.1-0.8 3.6-1v-1.1c0-0.4-0.2-0.7-0.5-1 -0.3-0.3-0.7-0.4-1.2-0.4 -0.5 0-0.8 0.1-1.2 0.3 -0.2 0.1-0.3 0.3-0.3 0.4 0 0.1 0.1 0.2 0.2 0.4 0.1 0.2 0.2 0.4 0.2 0.6 0 0.2-0.1 0.4-0.2 0.6 -0.2 0.1-0.3 0.2-0.6 0.2 -0.3 0-0.5-0.1-0.6-0.3 -0.2-0.2-0.3-0.4-0.3-0.7 0-0.5 0.3-1 0.9-1.4 0.6-0.4 1.3-0.6 2.3-0.6 0.9 0 1.5 0.2 2 0.6 0.5 0.4 0.7 0.8 0.7 1.4v4c0 0.4 0.1 0.6 0.2 0.8 0.1 0.2 0.3 0.3 0.4 0.3C167.4 60 167.6 59.9 167.8 59.7zM165.3 56.7c-1.3 0.2-2.3 0.5-2.8 0.9 -0.4 0.3-0.6 0.8-0.6 1.3 0 0.4 0.1 0.7 0.3 0.9 0.2 0.2 0.5 0.3 0.8 0.3 0.6 0 1.1-0.2 1.6-0.7 0.4-0.5 0.7-1 0.7-1.7V56.7z" class="a"/><path d="M171.1 53.3h1.8v0.7h-1.8v5.3c0 0.2 0.1 0.4 0.2 0.5 0.2 0.1 0.4 0.2 0.7 0.2h1v0.6h-4.5v-0.6h0.6c0.3 0 0.5 0 0.6-0.1 0.1-0.1 0.2-0.2 0.2-0.4v-5.5h-1.3v-0.7h1.3v-0.6c0-1.3 0.3-2.3 0.8-2.9 0.5-0.7 1.2-1 2-1 0.6 0 1 0.1 1.4 0.4 0.3 0.3 0.5 0.7 0.5 1.1 0 0.3-0.1 0.5-0.2 0.7 -0.2 0.2-0.4 0.3-0.6 0.3 -0.2 0-0.4-0.1-0.5-0.2 -0.1-0.1-0.2-0.3-0.2-0.5 0-0.2 0.1-0.4 0.3-0.6 0.2-0.1 0.2-0.2 0.2-0.3 0-0.1-0.1-0.2-0.2-0.2 -0.1-0.1-0.3-0.1-0.5-0.1 -0.4 0-0.8 0.2-1.1 0.6s-0.5 1-0.5 1.7V53.3z" class="a"/><path d="M180.2 57h-5.2c0 1.1 0.2 1.9 0.6 2.3 0.4 0.5 1 0.8 1.7 0.8 1 0 1.8-0.6 2.4-1.7l0.5 0.2c-0.8 1.5-1.9 2.2-3.3 2.2 -1 0-1.8-0.4-2.5-1.1s-1-1.6-1-2.7c0-1.2 0.3-2.1 1-2.9 0.7-0.7 1.5-1.1 2.4-1.1 0.7 0 1.3 0.2 1.8 0.5 0.5 0.4 0.9 0.9 1.2 1.6C180 55.6 180.1 56.2 180.2 57zM174.9 56.4h3.2c0.2 0 0.3-0.1 0.4-0.2 0.1-0.1 0.2-0.3 0.2-0.6 0-0.6-0.2-1.1-0.5-1.5s-0.8-0.6-1.3-0.6c-0.5 0-1 0.2-1.4 0.7C175.1 54.7 174.9 55.4 174.9 56.4zM176 52l-0.2-0.2 1.3-1.9c0.4-0.5 0.6-0.9 0.8-1 0.1-0.1 0.3-0.2 0.4-0.2 0.2 0 0.3 0.1 0.5 0.2 0.1 0.1 0.2 0.3 0.2 0.4 0 0.3-0.2 0.5-0.6 0.8L176 52z" class="a"/><path d="M184.3 47.3h5l4.5 11.9 4.1-11.9h5.1v0.8h-1.3c-0.4 0-0.7 0.1-0.9 0.2 -0.2 0.1-0.2 0.4-0.2 0.7v11.9c0 0.2 0.1 0.4 0.3 0.5 0.2 0.1 0.5 0.2 0.9 0.2h1.1v0.8h-6.9v-0.8h1.3c0.4 0 0.6-0.1 0.8-0.2 0.2-0.1 0.3-0.3 0.3-0.5V48l-5 14.3h-0.7l-5.4-14.2v10.9c0 0.7 0.1 1.1 0.2 1.5 0.2 0.3 0.4 0.6 0.7 0.7 0.3 0.2 0.8 0.3 1.5 0.3v0.8h-5.7v-0.8c0.9-0.1 1.6-0.3 1.9-0.6s0.5-0.9 0.5-1.8V48.8c0-0.3-0.1-0.4-0.2-0.6 -0.2-0.1-0.4-0.2-0.9-0.2h-1.3V47.3z" class="a"/><path d="M211.2 47h0.7l5.4 13.8c0.2 0.6 0.7 0.8 1.3 0.8h0.5v0.8h-6v-0.8h0.5c0.6 0 1.1-0.1 1.3-0.2 0.2-0.1 0.3-0.2 0.3-0.4 0-0.1 0-0.2-0.1-0.4l-1.2-3.2h-5.9l-0.7 1.8c-0.2 0.5-0.3 0.9-0.3 1.2 0 0.3 0.2 0.6 0.5 0.9 0.3 0.2 0.8 0.4 1.3 0.4h0.5v0.8h-5.4v-0.8c0.6 0 1-0.1 1.4-0.4 0.3-0.3 0.7-0.7 0.9-1.4L211.2 47zM210.9 49.9l-2.7 6.7h5.3L210.9 49.9z" class="a"/><path d="M219.8 47.3h6.9v0.8h-1.2c-0.5 0-0.9 0.1-1 0.2 -0.1 0.1-0.2 0.4-0.2 0.8V60.5c0 0.5 0.1 0.7 0.2 0.9 0.2 0.2 0.5 0.2 0.9 0.2h1.3v0.8h-6.9v-0.8h1.3c0.5 0 0.8-0.1 0.9-0.2 0.1-0.1 0.2-0.4 0.2-0.9V49.1c0-0.4-0.1-0.7-0.2-0.8 -0.2-0.2-0.5-0.2-1-0.2h-1.2V47.3z" class="a"/><path d="M227.5 47.3h6.9v0.8h-1.5c-0.3 0-0.6 0.1-0.7 0.2 -0.2 0.2-0.3 0.4-0.3 0.6v7l5.7-6c0.3-0.4 0.5-0.7 0.5-1 0-0.2-0.1-0.4-0.3-0.6s-0.6-0.2-1.1-0.2h-0.4V47.3h6.2v0.8h-0.5c-0.4 0-0.9 0.1-1.4 0.4 -0.5 0.2-1 0.6-1.4 1l-3.5 3.6 5 7.4c0.3 0.4 0.6 0.7 0.9 0.9 0.3 0.2 0.7 0.3 1.1 0.3h0.5v0.8h-6.8v-0.8h0.8c0.6 0 0.9 0 1.1-0.1 0.2-0.1 0.3-0.2 0.3-0.4 0-0.1 0-0.3-0.1-0.4l-4.1-6.1 -2.4 2.5v3.7c0 0.2 0.1 0.4 0.2 0.5 0.2 0.2 0.5 0.2 0.8 0.2h1.5v0.8h-6.9v-0.8h1.3c0.3 0 0.6-0.1 0.8-0.2 0.2-0.1 0.2-0.3 0.2-0.5V48.8c0-0.2-0.1-0.4-0.3-0.6s-0.5-0.2-0.9-0.2h-1.1V47.3z" class="a"/><path d="M247.9 47c1.3 0 2.5 0.3 3.6 1 1.1 0.7 2 1.6 2.6 2.8 0.6 1.2 0.9 2.5 0.9 4 0 1.5-0.3 2.9-0.9 4.1 -0.6 1.2-1.5 2.1-2.6 2.8 -1.1 0.7-2.3 1-3.5 1 -1.2 0-2.3-0.3-3.4-1 -1.1-0.7-1.9-1.6-2.5-2.8 -0.6-1.2-1-2.6-1-4.1 0-1.5 0.3-2.8 0.9-4 0.6-1.2 1.5-2.1 2.5-2.8C245.6 47.3 246.7 47 247.9 47zM248 47.7c-1.3 0-2.4 0.6-3.2 1.6 -0.8 1.1-1.2 2.9-1.2 5.4 0 2.7 0.4 4.6 1.3 5.6s1.9 1.5 3.1 1.5c0.9 0 1.6-0.2 2.3-0.7 0.7-0.5 1.2-1.2 1.6-2.2 0.4-1 0.6-2.4 0.6-4 0-1.8-0.2-3.2-0.5-4.2 -0.4-1-0.9-1.8-1.6-2.2C249.6 48 248.9 47.7 248 47.7z" class="a"/><path d="M163.7 26c0.1 0.1 0.2 0.1 0.3 0.2 0.5 0.4 0.6 0.5 0.9 1 0.4-0.1 0.4-0.1 1-0.5 0.1 0 0.2-0.1 0.4-0.3 0.2-0.1 0.3-0.2 0.3-0.3 0-0.1 0-0.1 0-0.2 0.2 0 0.3-0.1 0.4-0.1 0.2 0 0.3-0.1 0.4-0.1 0.2 0 0.9 0.2 1.2 0.4 0.2 0.1 0.2 0.1 0.4 0.4 0 0 0.1 0.1 0.2 0.2 0.2 0.1 0.3 0.3 0.3 0.5 0 0.1 0 0.3-0.2 0.5 0.6 0.1 0.6 0.1 0.9 0.3 0.1 0.1 0.3 0.3 0.3 0.5 0 0.2-0.2 0.4-0.4 0.4 0 0 0 0 0 0 -0.3 0-0.6 0-0.8 0 -0.1 0-0.3 0-0.5 0 -1.1 0.9-1.9 1.5-2.2 1.7 0.5 0 0.5 0 1.5-0.1 0.2 0 0.5 0 1.3 0 0.2-0.2 0.3-0.3 0.5-0.5h0.3c0.4 0.2 0.4 0.2 1 0.3 0 0 0.3 0.1 0.9 0.3 0.4 0.2 0.7 0.5 0.7 0.9 0 0.3-0.2 0.4-0.5 0.4 0 0 0 0-0.2 0 -0.2 0-0.5-0.1-0.6-0.1 -0.1 0-0.1 0-0.5-0.1 -0.3 0-0.3 0-0.9-0.2l-0.9 0c0 0-0.3 0-0.7 0 -0.1 0-0.2 0-0.3 0 -0.3 0-0.5 0-1.1 0.1 0 0 0.3 0.2 0.9 0.6 0.4 0.3 0.4 0.3 0.5 0.5 0.1 0.2 0.1 0.3 0.1 0.3 0 0 0 0 0 0 0 0.1 0 0.2 0 0.3 1.2 0.2 1.4 0.3 1.4 0.6 0 0.2-0.2 0.4-0.5 0.4 0 0-0.1 0-0.1 0l-1.2 0.4c0 0.2 0 0.3 0 0.4v0.4l0 0.9c0 0.1 0 0.3 0 0.5 0.5-0.1 0.6-0.1 1-0.3 0.2-0.2 0.3-0.4 0.3-0.6 0-0.1-0.1-0.4-0.3-0.6l0.1 0c0.3 0.2 0.3 0.2 0.6 0.6 0.2 0.3 0.4 0.3 0.8 0.4 0 0 0.2 0.1 0.5 0.2 0 0 0.1 0 0.1 0 0.5 0.2 0.6 0.3 0.6 0.5 0 0.3-0.1 0.3-1.4 0.3 -0.6 0-1.1 0.1-2.4 0.4 0 0.7 0 1.2-0.1 1.5 0 0.5 0 0.8 0 1 0 0.1 0 0.4 0 0.9 0 0.2 0 0.4 0 0.6 0 0.1 0 0.3 0 0.6 0 0.1 0 0.2 0 0.2 0 0.3 0 0.4 0.1 0.5 -0.1 0.4-0.4 0.6-0.7 0.6 -0.1 0-0.1 0-0.7-0.5 -0.2-0.2-0.3-0.3-0.5-1 -0.2-0.4-0.2-0.4-0.5-0.8 0.1-0.2 0.1-0.3 0.1-0.4 0 0 0 0 0 0 0.4 0 0.5-0.1 0.5-0.7v-0.3c0-0.2 0-0.4 0-0.7 0-0.5 0.1-0.7 0.1-0.9 0-0.1 0-0.2 0-0.3 -0.6 0.2-0.6 0.2-1.6 0.4 0 0-0.2 0.1-0.5 0.1 -0.3 0.1-0.6 0.2-0.8 0.2 -0.4 0.1-0.4 0.1-0.9 0.4 0 0 0 0-0.1 0 -0.2 0-0.3-0.2-0.4-0.6 -0.1-0.5-0.1-0.6-0.3-0.9l0.2-0.5c0.2-0.1 0.3-0.2 0.4-0.2 0.1 0 0.2 0 0.4 0.2 0.4-0.2 0.7-0.6 1.5-1.5 0.3-0.4 0.4-0.5 0.7-0.7 -0.1 0-0.2 0-0.3 0 0 0-0.2 0-0.5-0.1 -0.1 0-0.1 0-0.3-0.1 -0.2-0.1-0.3-0.1-0.6-0.2l-0.1-0.1c-0.2 0.5-0.3 0.6-0.7 0.8 -0.1 0-0.1 0-0.3 0.2 0 0-0.2 0.1-0.5 0.4 -0.1 0-0.3 0.3-0.6 0.7 -0.2 0.3-0.4 0.4-0.7 0.7 0.2 0.2 0.2 0.3 0.3 0.6v0.2l-0.2 0.3 -0.3 0c-0.2 0-0.2 0-0.4-0.1 -0.1-0.1-0.1-0.1-0.2-0.1 -1.1 1.1-1.1 1.2-2.4 2.2 -1 0.8-1.9 1.3-2.6 1.5 -0.1-0.1-0.3-0.1-0.3-0.1 -0.1 0-0.2 0-0.3 0.1 0 0-0.1 0-0.1 0 -0.2-0.1-0.2-0.2-0.3-0.4l0.1-0.4c0.1-0.3 0.1-0.3 0.1-0.7 0-0.1 0-0.4 0.2-0.8 0 0 0-0.3 0.1-0.8h0.1c0 0.7 0.1 1 0.1 1.2 0.2 0.4 0.2 0.4 0.3 0.6 0.1 0 0.1 0 0.2 0 0.3 0 0.8-0.3 1.6-1 0.5-0.4 1.6-1.5 2.2-2l-0.4-0.1c-0.3-0.1-0.9-0.2-1.1-0.2 -0.5 0-0.5 0-0.8-0.1 -0.1 0-0.3 0-0.5 0 0 0-0.1 0-0.1 0 -0.1 0-0.2 0-0.4 0 -0.2 0-0.4 0-0.7 0.1l0 0c0.4-0.3 0.4-0.4 1.3-0.6 0.3-0.1 0.4-0.1 0.7-0.2h-0.3v-0.1l-0.1-0.4c-0.1-0.3-0.1-0.4-0.1-0.8l0.1-0.1 0.2-0.2 0.2 0 0.3 0c0.5-0.2 0.6-0.2 1.3-0.7 0.4-0.3 0.4-0.3 0.7-0.4 0.5-0.3 0.8-0.6 0.8-0.9 0-0.1 0-0.1-0.1-0.2 0-0.1 0-0.1-0.1-0.2 -1.1 0.3-1.7 0.5-1.9 0.6 -1 0.5-1.5 0.7-1.7 0.8 -0.9 0.5-1.5 0.8-1.8 0.8 -0.2 0-0.2 0-0.4-0.2 -0.4-0.3-0.7-0.5-0.7-0.6 0 0-0.2-0.1-0.4-0.2 -0.2-0.1-0.2-0.2-0.2-0.4 -0.1-0.1-0.1-0.1-0.1-0.2 0-0.2 0.1-0.3 0.3-0.4 0 0 0 0 0.3-0.1 0.2 0 0.3-0.1 0.5-0.2l0.1 0c-0.1 0.2-0.1 0.2-0.1 0.4 0.1 0.1 0.2 0.1 0.3 0.1 0.3 0 0.7-0.1 1.2-0.2 0.2-0.1 0.3-0.1 1-0.2 0.8-0.2 2.3-0.5 3.2-0.8l-0.2-0.3c-0.3-0.5-0.3-0.6-0.6-1 -0.1 0-0.2 0-0.3 0 -0.7 0-1.4-0.2-1.9-0.5l0.1-0.1c0.1 0 0.2 0 0.3 0 0.3 0 0.3 0 1.4-0.3 0-0.4 0-0.5 0-0.5 0-0.3 0.1-0.5 0.4-0.9l0-0.4 0.1 0c0 0.1 0 0.1 0.2 0.1 0.1 0 0.2 0.1 0.3 0.4 0.1 0.4 0.2 0.6 0.6 1 0.4-0.1 0.4-0.1 0.8-0.2 0.4-0.1 0.5-0.1 0.9-0.2 0-0.6 0.1-1.5 0.1-1.9l0.1 0c0.5 0.4 0.7 0.8 1 1.5 0.2-0.2 0.3-0.4 0.3-0.4 0.3-0.5 0.3-0.5 0.5-0.7l0.1 0c0 0.2-0.2 0.6-0.4 1.2 0.7-0.1 0.9-0.1 1.5-0.3 0-0.4 0-0.8 0-1.2 0-0.4 0-0.6-0.2-1.1L163.7 26zM157.9 35.9c-0.4 0.3-0.5 0.4-1 0.8 1.1 0 1.7 0.1 2.3 0.4 0.5-0.5 0.6-0.7 1-1.2 0.1-0.1 0.1-0.2 0.2-0.3 0.2-0.3 0.5-0.6 0.5-0.7 0 0 0-0.1-0.1-0.2 -0.7 0.1-0.8 0.1-1.8 0.5L157.9 35.9zM160.5 22.4c0.5 0.1 0.6 0.2 0.9 0.5 0.4 0.4 0.5 0.6 0.5 1.2 0 0.1 0 0.3-0.1 0.5 -0.2 0.1-0.2 0.2-0.3 0.5C161.8 25 161.8 25 162.6 24.9c0 0 1.8-0.4 1.9-0.4 0.7-0.2 0.7-0.2 1.3-0.3l0.2-0.4c0.1-0.1 0.2-0.2 0.4-0.2 0.3 0.1 0.5 0.2 0.6 0.2 0.1 0 1.2 0.5 1.3 0.5 0.1 0.1 0.3 0.3 0.3 0.4 0 0.2-0.1 0.4-0.5 0.4 -0.1 0.1-0.2 0.2-0.4 0.2l-0.2-0.1c-0.1 0-0.2 0-0.3 0 0 0 0 0-0.7-0.1 -0.1 0-0.2 0-0.2 0 -0.1 0-0.1 0-0.5 0 -0.1 0-0.1 0-1.1 0.1 -0.5 0-0.5 0-1 0.2 -0.3 0-0.6 0.1-0.9 0.2 -0.5 0.1-0.7 0.1-1.1 0.3 -0.5 0.2-0.9 0.4-0.9 0.4l-0.7 0.2c-0.2 0-0.5 0.2-1 0.4 -0.5 0.2-1 0.4-1.2 0.4 -0.1 0-0.3-0.1-0.4-0.2 0 0 0-0.2-0.1-0.4 0-0.3 0-0.4-0.1-0.8 0-0.1 0.1-0.2 0.2-0.3l0.5 0c0.1-0.1 0.2-0.2 0.3-0.3 0.8-0.6 0.8-0.6 1.4-1.4 0.8-1 0.8-1 0.8-1.1 0 0-0.1-0.3-0.2-0.5L160.5 22.4zM159.3 30.6c0 0.1 0 0.2-0.1 0.4 0 0.1 0 0.1-0.2 0.3 -0.1 0.1-0.1 0.2-0.1 0.5 0.5-0.1 0.6-0.1 1.3-0.3 0.4-0.1 0.4-0.1 0.9-0.2 -0.2-0.4-0.3-0.5-0.5-1.3 -0.6 0.2-0.8 0.3-1.3 0.4C159.3 30.5 159.3 30.5 159.3 30.6zM162 33.6c0.2 0 0.6 0.5 1 1.2 0.2-0.1 0.2-0.1 0.6-0.3 0.1 0 0.1 0 0.6-0.2 0.3-0.1 0.3-0.1 0.7-0.2 0.2 0 0.2 0 0.5-0.1 0.2 0 0.6-0.2 1-0.3 0-0.1 0-0.2 0-0.2 0-0.2 0-1 0-1.2 0-0.3-0.1-0.4-0.4-0.7 -0.1 0-0.2 0-0.3 0 -0.1 0-0.1 0-0.3 0 -0.1 0-0.3 0-0.6 0.1 -0.1 0-0.8 0.3-1.1 0.4 -0.2 0.1-0.4 0.2-0.5 0.2 -0.1 0-0.1 0-0.3 0.1 -0.2 0.1-0.4 0.2-1.1 0.5 -0.4 0.1-0.6 0.2-0.7 0.2 -0.5 0.2-0.5 0.2-0.7 0.2v-0.1c0.1 0 0.2-0.1 0.3-0.1 0.3-0.1 0.3-0.1 0.6-0.3 0.1-0.1 0.3-0.2 0.6-0.3 0.1 0 0.2-0.1 0.5-0.3 0 0 0.1-0.1 0.3-0.2 -0.8 0-0.9 0-2.1 0.4 -0.4 0.1-0.7 0.2-1.3 0.3l0 0.2c0.4 0.1 0.6 0.4 0.6 0.7 0 0.2-0.1 0.3-0.4 0.5l0 0.2c0.3-0.1 0.3-0.1 0.7-0.3 0.1 0 0.1 0 0.2-0.1 0.2-0.1 0.4-0.2 0.4-0.2 0-0.1 0.1-0.1 0.1-0.1l0.3 0.1L162 33.6zM161.8 31.2c0.8-0.2 0.8-0.2 2-0.4 -0.2-0.6-0.3-0.8-0.5-1.4 -0.5 0.1-0.7 0.1-1.2 0.2C162.1 29.8 162 30.3 161.8 31.2zM164.3 37.8c0.1 0 0.4-0.1 0.8-0.2 0.5-0.1 0.7-0.2 1.1-0.4 0-0.4 0-0.4 0.1-0.9 0-0.2 0-0.4 0-0.6 0-0.1 0-0.2 0-0.3 -0.4 0.2-0.5 0.2-0.7 0.5 -0.8 0.6-1.2 1-1.3 1 0 0-0.1 0.1-0.3 0.2 -0.4 0.3-0.6 0.5-0.8 0.8C163.6 38 163.8 38 164.3 37.8zM165 30.6c1.1-1 1.1-1 1.9-1.8 -1.3 0.1-1.3 0.1-1.8 0.2 -0.3 0.6-0.4 0.9-0.6 1.6L165 30.6zM165.6 27.2c-0.2 0.1-0.4 0.4-0.4 0.7 0.4-0.1 0.4-0.1 0.8-0.2 0.4 0 0.4 0 0.7-0.1 0.2 0 0.4-0.1 0.8-0.1 0-0.2 0-0.2 0.2-0.5 0 0 0-0.1 0-0.1 0-0.3-0.3-0.6-0.6-0.6 -0.2 0-0.5 0.1-0.7 0.3C166.2 26.8 166.2 26.8 165.6 27.2z" class="b"/><path d="M189.2 23.7c0.6 0.4 0.8 0.8 0.8 1.5 0 0 0 0.2 0 0.6 0 0.6-0.1 1-0.1 1 0.1 0.1 0.2 0.1 0.2 0.2 0.6 0.6 1.2 1 1.5 1 0 0 0.2 0 0.4 0 0.1 0 0.2 0 0.3 0 0.6 0 1 0.2 1 0.5s-0.3 0.7-0.7 0.9c-0.5 0.3-0.5 0.3-1.3 0.8 -0.2 0.1-1.1 0.5-1.2 0.6 -0.7 0.2-0.7 0.2-0.9 0.3 -0.3 0.9-0.4 1.2-0.8 2.3 0.2-0.1 0.9-0.4 1.1-0.5 0.5-0.3 0.5-0.3 0.7-0.3 0.4 0 1.3 0.2 1.8 0.5 0.5 0.2 0.9 0.7 0.9 1 0 0.1 0 0.1-0.3 0.8 0 0.1-0.2 0.5-0.4 1.1 0 0.1-0.2 0.4-0.4 0.9 -0.4 0.8-0.5 1.2-0.5 1.3 -0.2 0.3-0.4 0.6-0.5 1 -0.1 0.2-0.1 0.2-0.3 0.5 0.4 0.4 0.4 0.4 1.6 1.1 0.6 0.4 0.8 0.4 1.1 0.5 0.1 0 0.3 0.1 0.6 0.3 0.1 0 0.5 0.2 1 0.4 0.7 0.3 1.1 0.5 1.3 0.8 0 0.1 0.1 0.1 0.3 0.3l0.8 0.7c-0.2 0.1-0.3 0.1-0.3 0.1 -0.1 0-0.1 0-0.2 0 -0.5 0.1-0.7 0.2-1 0.2 -0.2 0-0.3 0-0.7-0.1 -0.1 0-0.3 0-0.5 0 -0.5 0-1.4-0.2-2.1-0.5 -1-0.3-1.3-0.5-2.1-1.5 -0.6-0.7-0.6-0.7-0.8-1 -1.6 1.5-3.9 2.6-5.3 2.6 -1.1 0-1.9-0.4-2-0.9h0.1c0.4 0.3 0.6 0.4 0.9 0.4 0.4 0 1.1-0.2 1.6-0.5 0.4-0.2 0.6-0.3 0.6-0.3 0.3-0.1 0.3-0.1 1-0.6 0.9-0.7 1.2-0.9 2.1-1.9 -0.4-0.5-0.5-0.6-0.9-1l-0.1-0.1c-0.1-0.1-0.2-0.2-0.3-0.3 -0.5-0.5-0.5-0.5-0.8-0.6 -0.2-0.1-0.2-0.1-0.3-0.2 -0.2-0.1-0.4-0.1-0.5-0.2 -0.6-0.2-0.6-0.2-0.9-0.2l-0.1-0.1 0.1 0c0.3-0.2 0.4-0.2 0.8-0.2 0.8 0 1.5 0.2 2.5 0.9 0.3 0.2 0.7 0.5 0.8 0.6 0.3 0.2 0.3 0.2 0.4 0.3 0.5-0.9 0.6-1 0.7-1.3 0.4-0.9 0.6-1.8 0.6-2.5 0-0.4-0.1-0.6-0.3-1l-0.1 0c-1.5 1.2-1.5 1.2-2.2 2 -0.3 0.3-0.5 0.5-0.8 0.5 0 0 0 0-0.1 0v-0.1c-0.2-0.2-0.3-0.4-0.4-0.8 -0.1-0.3-0.2-0.8-0.2-0.9 0-0.1 0.1-0.3 0.4-0.6 0.4-0.8 0.7-1.7 0.8-2.3 -0.3 0-0.5 0-0.7 0 -1 0-1.6-0.1-2.1-0.5 -0.2 0-0.3 0-0.4 0l-0.2 0.1 -0.5 0.3c-0.2 0.3-0.3 0.5-0.6 0.8 0.2 0.7 0.2 1 0.2 1.5 0 0.2 0 0.2 0 0.5 0 0 0 0.1 0 0.1 0 0.1 0 0.2 0 0.3 -0.2 0.6-0.6 1.8-1 2.5 -0.2 0.3-0.2 0.4-0.4 0.7 0.2 0.2 0.2 0.2 0.4 0.3 0.2 0.2 0.9 0.8 1.1 1.1l0.1 0.1c0.2-0.6 0.3-0.9 0.3-1.6l0 0c0.1 0.4 0.1 0.4 0.1 1 0 0.4 0.2 0.9 0.5 2 0 0.1 0.2 0.7 0.2 0.8 0 0.2-0.2 0.3-0.4 0.3 -0.2 0-0.6-0.2-1.1-0.6 -0.2-0.2-0.3-0.3-0.5-0.7 -0.4-0.4-0.5-0.5-0.9-0.9 -0.3-0.3-0.5-0.5-0.7-0.6 -0.4 0.6-0.5 0.8-0.8 1 0 0-0.2 0.2-0.5 0.5 -0.1 0.1-0.1 0.1-0.2 0.2 0 0 0 0-0.8 0.6 -0.2 0.2-0.2 0.2-0.6 0.5 -0.3 0.2-0.5 0.3-0.6 0.3 -0.1 0.1-0.3 0.1-0.5 0.2 -0.1 0-0.3 0.1-0.5 0.2l-0.3 0.1c-0.4 0-0.7 0.1-0.8 0.1 -0.1 0-0.3 0-0.5 0l0 0 0-0.1c0.7-0.1 0.8-0.2 1.4-0.5l0.1 0c0.5-0.3 1.1-0.8 1.7-1.6 1.2-1.3 1.2-1.4 1.8-2.3 -0.1-0.2-0.2-0.2-0.5-0.5 -0.1-0.1-0.2-0.2-0.4-0.3 -0.2-0.2-0.3-0.2-0.4-0.3l-0.1 0c-0.1 0-0.2 0-0.4-0.1 -0.2-0.1-0.3-0.2-0.3-0.4 0 0 0 0 0 0 0-0.1 0-0.2 0-0.3 0-0.3 0-0.5 0.2-0.8 -0.5 0.3-0.8 0.5-1 0.7 -0.7 0.5-1 0.6-1.5 0.7l-0.1 0.1h-0.1c-0.1-0.1-0.2-0.1-0.2-0.2h0c-0.1-0.2-0.1-0.2-0.3-0.8 0 0-0.1-0.2-0.2-0.3 -0.1-0.2-0.2-0.4-0.2-0.5 0-0.2 0.1-0.3 0.6-0.7 0.3-0.2 0.4-0.2 0.5-0.2 0.2 0 0.4 0.2 0.5 0.5 0.4-0.1 0.4-0.1 0.8-0.2 1-0.4 1.5-0.6 1.5-0.6 0.1-0.5 0.4-1.7 0.5-2.1 0-0.3 0-0.3 0.2-0.7 0.2-0.8 0.6-3.4 0.6-4.1 0-0.1-0.1-0.5-0.2-1 -0.1-0.2-0.1-0.2-0.2-0.4C179.4 25 179.4 25 179.3 24.7c0 0 0 0 0 0 0-0.1 0.2-0.2 0.4-0.2 0.3 0 0.4 0.1 0.9 0.6l0 0.1 0.1 0.1 0.1 0.2c0.7 0.8 1 1.4 1 2 0 0.5 0 0.5-0.9 2.9 -0.5 1.4-0.5 1.4-0.8 2.3 0.5-0.2 1.8-0.9 2-1.1 0-0.2 0-0.3 0-0.5 0-0.2 0-0.4-0.1-0.7l0.1-0.2 0.3 0v0c0.2 0.2 0.3 0.3 0.5 1 0.2-0.1 0.4-0.2 0.5-0.2 0.4-0.2 0.6-0.3 0.7-0.4 0.3-0.1 0.3-0.1 0.5-0.2 0 0 0.2 0 0.5 0 0.2 0 0.2 0 1.4-0.4 0.4-0.1 0.7-0.2 1.3-0.5 0.1-1.4 0.2-2.1 0.2-3 0-1-0.1-1.5-0.6-2.2 -0.3-0.5-0.4-0.6-0.5-0.6l0-0.4c0.2-0.1 0.3-0.1 0.4-0.2l0.2-0.1c0.6 0 0.8 0.1 1.5 0.6L189.2 23.7zM181.5 33.2c-0.3 0.2-0.6 0.4-0.7 0.5 -0.4 0.3-0.5 0.3-0.7 0.5 -0.2 0.1-0.2 0.1-0.3 0.2 -0.1 0.3-0.1 0.5-0.2 0.7 -0.1 0.2-0.1 0.4-0.1 0.5 0 0.1 0.1 0.3 0.4 0.4 0.3 0.1 0.4 0.2 0.7 0.4l0.2 0.1c0.7-1.2 1.1-2.6 1.2-3.5L181.5 33.2zM189.8 28.9c0.5-0.2 0.7-0.3 0.7-0.5 0-0.2-0.1-0.5-0.6-1.3 0 0.2 0 0.2-0.1 0.9 0 0 0 0.2-0.1 0.5 0 0.1 0 0.3-0.1 0.5C189.6 29 189.7 28.9 189.8 28.9z" class="b"/><path d="M151.2 0c-18 0-32.6 14.6-32.6 32.6 0 14.2 9 26.6 22.5 31l-0.3-7.4c6.7 0.7 7.2-6 7.2-6s0 0-2.6 0.8c-2.6 0.8-4.7 4.3-4.7 4.3v-2.6l1.5-1.5c0 0 4.5-5.3 6-12.5 1.3-6.4-0.6-13.6-0.6-13.6s-8 1-8.2 11.8c-0.2 10.8 2.1 14 2.1 14l-1 1.2 -0.4-2.1c-1.4-8.5-8.8-9-8.8-9s0.4 2 1.7 5.2c1.5 3.6 6.6 4.5 6.6 4.5 1 2.1 0.2 8.2-0.2 10.8 -11.7-4.7-19.4-16.1-19.4-28.8 0-17.2 14-31.1 31.1-31.1 13.7 0 25.6 8.7 29.7 21.7l1.4-0.5C178 9.2 165.5 0 151.2 0z" class="b"/><path d="M12.5 30.2h4.3c1 0 1.7 0.2 2.2 0.7 0.5 0.4 0.8 1 0.8 1.7 0 0.7-0.2 1.2-0.7 1.6 -0.6 0.5-1.4 0.8-2.4 0.8h-1.5v3c0 0.2 0 0.3 0.1 0.4 0.1 0.1 0.3 0.1 0.4 0.1h1v0.4h-4.2v-0.4h0.9c0.2 0 0.3 0 0.4-0.1 0.1-0.1 0.1-0.2 0.1-0.3v-6.9c0-0.2 0-0.3-0.2-0.4 -0.1-0.1-0.3-0.1-0.6-0.1h-0.6V30.2zM15.1 34.5h1.2c0.7 0 1.3-0.2 1.6-0.5 0.3-0.3 0.5-0.8 0.5-1.5 0-0.5-0.1-0.9-0.2-1.2 -0.1-0.3-0.4-0.5-0.7-0.6s-0.8-0.2-1.4-0.2c-0.4 0-0.7 0-0.8 0.1 -0.1 0.1-0.2 0.2-0.2 0.4V34.5z" class="a"/><path d="M25.4 30.2h4.5c0.9 0 1.5 0.2 2 0.6 0.5 0.4 0.7 0.9 0.7 1.6 0 0.4-0.1 0.7-0.3 1 -0.2 0.3-0.5 0.5-0.8 0.7 -0.4 0.2-0.9 0.3-1.7 0.4 0.6 0.2 0.9 0.3 1.2 0.4s0.4 0.3 0.5 0.6c0.1 0.2 0.3 0.7 0.4 1.4 0.1 0.5 0.2 0.9 0.4 1 0.1 0.1 0.2 0.2 0.3 0.2 0.1 0 0.2-0.1 0.3-0.3 0.1-0.2 0.2-0.5 0.2-0.9h0.4c-0.1 1.3-0.6 2-1.5 2 -0.3 0-0.5-0.1-0.7-0.2 -0.2-0.1-0.4-0.4-0.5-0.6 -0.1-0.2-0.2-0.8-0.3-1.7 -0.1-0.5-0.2-0.9-0.3-1.1 -0.1-0.2-0.3-0.4-0.6-0.5 -0.3-0.1-0.6-0.2-1-0.2h-0.7v3.4c0 0.1 0 0.2 0.1 0.3 0.1 0.1 0.2 0.1 0.4 0.1h0.8v0.4h-4v-0.4h0.8c0.2 0 0.3 0 0.4-0.1s0.1-0.2 0.1-0.3v-6.9c0-0.1 0-0.3-0.1-0.3 -0.1-0.1-0.2-0.1-0.4-0.1h-0.8V30.2zM28 34.2h1c0.7 0 1.2-0.1 1.6-0.4 0.4-0.3 0.6-0.7 0.6-1.4 0-0.5-0.1-0.8-0.2-1.1 -0.1-0.3-0.3-0.4-0.6-0.5 -0.2-0.1-0.7-0.1-1.4-0.1 -0.5 0-0.7 0-0.9 0.1 -0.1 0.1-0.2 0.2-0.2 0.3V34.2z" class="a"/><path d="M39.5 30.2h6.9l0.2 2.9h-0.4c-0.2-0.9-0.4-1.6-0.7-1.9s-0.8-0.5-1.3-0.5h-1.7c-0.1 0-0.2 0-0.3 0.1 -0.1 0.1-0.1 0.2-0.1 0.3v3.1h0.7c0.4 0 0.7-0.1 1-0.4 0.2-0.3 0.4-0.7 0.4-1.3h0.4v4h-0.4c0-0.7-0.2-1.1-0.4-1.4 -0.2-0.3-0.6-0.4-1-0.4h-0.7v3.4c0 0.1 0 0.2 0.1 0.3 0.1 0.1 0.2 0.1 0.4 0.1h1.3c1.5 0 2.3-0.9 2.5-2.8h0.4l-0.1 3.2H39.5v-0.4h0.6c0.2 0 0.4 0 0.5-0.1 0.1-0.1 0.1-0.2 0.1-0.3v-6.9c0-0.2 0-0.3-0.1-0.3 -0.1-0.1-0.2-0.1-0.4-0.1H39.5V30.2z" class="a"/><path d="M52.6 30.2h2.9l2.6 6.8 2.4-6.8h2.9v0.4h-0.7c-0.3 0-0.4 0-0.5 0.1 -0.1 0.1-0.1 0.2-0.1 0.4v6.9c0 0.1 0.1 0.2 0.2 0.3 0.1 0.1 0.3 0.1 0.5 0.1h0.7v0.4h-4v-0.4h0.7c0.2 0 0.4 0 0.5-0.1 0.1-0.1 0.2-0.2 0.2-0.3V30.6l-2.9 8.2H57.6l-3.1-8.2v6.3c0 0.4 0 0.7 0.1 0.8s0.2 0.3 0.4 0.4c0.2 0.1 0.5 0.2 0.9 0.2v0.4h-3.3v-0.4c0.5 0 0.9-0.1 1.1-0.3 0.2-0.2 0.3-0.5 0.3-1v-6c0-0.1 0-0.3-0.1-0.3 -0.1-0.1-0.3-0.1-0.5-0.1h-0.7V30.2z" class="a"/><path d="M69.2 30.2h4v0.4h-0.7c-0.3 0-0.5 0-0.6 0.1 -0.1 0.1-0.1 0.2-0.1 0.5v6.6c0 0.3 0 0.4 0.1 0.5 0.1 0.1 0.3 0.1 0.5 0.1h0.8v0.4h-4v-0.4h0.8c0.3 0 0.4 0 0.5-0.1 0.1-0.1 0.1-0.2 0.1-0.5v-6.6c0-0.2 0-0.4-0.1-0.5 -0.1-0.1-0.3-0.1-0.6-0.1h-0.7V30.2z" class="a"/><path d="M79 30.2h4v0.4H82.2c-0.2 0-0.4 0-0.4 0.1 -0.1 0.1-0.1 0.2-0.1 0.3v4.9c0 0.5 0 0.9 0.1 1.2 0.1 0.4 0.4 0.7 0.7 0.9 0.4 0.2 0.8 0.3 1.4 0.3 0.8 0 1.4-0.2 1.8-0.6 0.4-0.4 0.6-1 0.6-1.6v-4c0-0.4 0-0.6-0.1-0.8 0-0.2-0.1-0.3-0.2-0.4 -0.1-0.1-0.2-0.2-0.3-0.2 -0.1 0-0.4-0.1-0.7-0.1v-0.4h3.3v0.4H88c-0.4 0-0.6 0.1-0.8 0.3 -0.2 0.2-0.3 0.5-0.3 0.9v4.3c0 0.9-0.3 1.6-0.8 2.1 -0.6 0.6-1.4 0.8-2.4 0.8 -0.9 0-1.5-0.1-2-0.4 -0.5-0.2-0.8-0.6-1.1-1.1 -0.2-0.3-0.3-0.8-0.3-1.3v-5.2c0-0.1 0-0.2-0.1-0.3 -0.1-0.1-0.2-0.1-0.4-0.1h-0.8V30.2z" class="a"/><path d="M93.7 30.2h2.9l2.6 6.8 2.4-6.8h2.9v0.4h-0.7c-0.3 0-0.4 0-0.5 0.1 -0.1 0.1-0.1 0.2-0.1 0.4v6.9c0 0.1 0.1 0.2 0.2 0.3 0.1 0.1 0.3 0.1 0.5 0.1h0.7v0.4h-4v-0.4h0.7c0.2 0 0.4 0 0.5-0.1 0.1-0.1 0.2-0.2 0.2-0.3V30.6l-2.9 8.2h-0.4l-3.1-8.2v6.3c0 0.4 0 0.7 0.1 0.8 0.1 0.2 0.2 0.3 0.4 0.4 0.2 0.1 0.5 0.2 0.9 0.2v0.4h-3.3v-0.4c0.5 0 0.9-0.1 1.1-0.3 0.2-0.2 0.3-0.5 0.3-1v-6c0-0.1 0-0.3-0.1-0.3 -0.1-0.1-0.3-0.1-0.5-0.1h-0.7V30.2z" class="a"/></svg>